<?xml version="1.0" encoding="utf-8"?>
<!-- Generator: Adobe Illustrator 19.2.0, SVG Export Plug-In . SVG Version: 6.00 Build 0)  -->
<svg version="1.1" id="Layer_1" xmlns="http://www.w3.org/2000/svg" xmlns:xlink="http://www.w3.org/1999/xlink" x="0px" y="0px"
	 viewBox="0 0 16 16" style="enable-background:new 0 0 16 16;" xml:space="preserve">
<style type="text/css">
	.st0{clip-path:url(#SVGID_2_);fill:url(#SVGID_3_);}
	.st1{clip-path:url(#SVGID_2_);fill:#FA8500;}
	.st2{fill:#FFFFFF;}
	.st3{fill:none;stroke:#FFFFFF;stroke-width:0.2077;stroke-linejoin:round;stroke-miterlimit:10;}
</style>
<g>
	<defs>
		<circle id="SVGID_1_" cx="8" cy="8" r="8"/>
	</defs>
	<clipPath id="SVGID_2_">
		<use xlink:href="#SVGID_1_"  style="overflow:visible;"/>
	</clipPath>
	<linearGradient id="SVGID_3_" gradientUnits="userSpaceOnUse" x1="8" y1="-3.592504e-10" x2="8" y2="16">
		<stop  offset="1.016422e-03" style="stop-color:#EB3598"/>
		<stop  offset="6.148504e-02" style="stop-color:#E1319C"/>
		<stop  offset="0.3505" style="stop-color:#B822AE"/>
		<stop  offset="0.6132" style="stop-color:#9B17BB"/>
		<stop  offset="0.8383" style="stop-color:#8810C3"/>
		<stop  offset="0.9995" style="stop-color:#820EC6"/>
	</linearGradient>
	<rect class="st0" width="16" height="16"/>
	<circle class="st1" cx="3.6" cy="12.7" r="2.7"/>
</g>
<g>
	<path class="st2" d="M9.6,2.8C9.5,2.5,9.7,2.3,9.9,2.2c0.3-0.1,0.5,0.1,0.6,0.3C10.9,3.5,11,4.7,11,6.3c0,0.6-0.1,1.1-0.2,1.5
		c-0.2-0.2-0.5-0.5-0.9-0.7C10,6.9,10,6.6,10,6.3C10,4.8,9.9,3.7,9.6,2.8z"/>
	<path class="st2" d="M8.3,6.3c0,0.1,0,0.2,0,0.3c0.3,0,0.6,0.1,0.9,0.2c0-0.2,0-0.3,0-0.4C9.3,4.2,9,3,8.5,1.8
		C8.4,1.6,8.2,1.5,7.9,1.6C7.7,1.7,7.5,1.9,7.6,2.2C8.1,3.3,8.4,4.4,8.3,6.3z"/>
	<path class="st2" d="M6.7,6.3c0,0.2,0,0.4,0,0.5c0.3-0.1,0.6-0.2,1-0.3c0-0.1,0-0.2,0-0.3c0-1.7-0.4-2.9-0.7-3.7
		C6.8,2.4,6.5,2.3,6.3,2.4C6.1,2.5,5.9,2.7,6,3C6.3,3.7,6.7,4.8,6.7,6.3z"/>
	<path class="st2" d="M10.5,11.5c0.2-0.1,0.2-0.2,0.2-0.2l0,0c0.7-0.8,1.2-1.7,1.5-2.7c0.1-0.3,0.3-1.2,0.3-2.2
		c0-1.3-0.1-2.2-0.3-3.2c0-0.2-0.3-0.3-0.5-0.3c-0.2,0-0.3,0.3-0.3,0.5c0.2,0.9,0.3,1.7,0.3,3c0,0.9-0.2,1.7-0.3,2
		c-0.1,0.2-0.1,0.4-0.2,0.6C10.9,10,9.9,11,8,11c-1.3,0-2.3-0.4-2.8-1.3c0,0,0,0,0,0c0,0,0,0,0-0.1c0,0,0,0,0,0c0,0,0,0,0,0
		c0,0,0,0,0,0C5,9.3,4.9,9,4.8,8.7C4.7,8.1,4.7,7.6,4.8,7c0-0.2-0.1-0.4-0.3-0.5C4.2,6.5,4,6.6,4,6.9C3.9,7.7,3.9,8.6,4.2,9.4
		c0.2,0.7,0.5,1.3,1,1.8c0.5,0.7,1.6,1.5,2.8,1.5c0.3,0,0.6-0.1,0.9-0.1c0,0,0,0,0,0c0,0,0,0,0,0c0.2,0.2,0.4,0.4,0.6,0.5
		c0.6,0.4,1,0.5,1.7,0.6c0.1,0,0.2,0,0.3,0c0.1-0.1-0.5-0.3-0.8-0.8C10.4,12.4,10.4,12,10.5,11.5C10.4,11.6,10.4,11.6,10.5,11.5
		C10.4,11.6,10.4,11.5,10.5,11.5z"/>
</g>
<path class="st3" d="M3,12.9c-0.1-0.2-0.2-0.3-0.2-0.5c0-0.6,0.4-1,1-1c0.6,0,1,0.4,1,1c0,0.6-0.4,1-1,1c-0.1,0-0.3,0-0.4-0.1l0,0
	L3,13.5L3,12.9z"/>
</svg>
